# xmcd
#
# Track frame offsets: 
#        150
#        18122
#        33320
#        52562
#        65875
#        79295
#        109412
#        125735
#        152135
#        172270
#        190192
#        221750
#
# Disc length: 3202 seconds
#
# Revision: 0
# Processed by: cddbd v1.5.1PL0 Copyright (c) Steve Scherf et al.
# Submitted via: ExactAudioCopy v0.95a5
#
DISCID=aa0c800c
DTITLE=Gregg Krupa - Premium Brewed
DYEAR=1995
DGENRE=Blues
TTITLE0=Love Ain't Supposed To Be This Way
TTITLE1=I Tried
TTITLE2=Retrofusion Rocket Blues
TTITLE3=Circles
TTITLE4=Fat Rat Boogie
TTITLE5=Last Night
TTITLE6=Backdoor Games
TTITLE7=Once Again
TTITLE8=Too Hot Too Handle
TTITLE9=Blues For All Occasions
TTITLE10=Melanie
TTITLE11=Bluesman At Heart
EXTD=
EXTT0=
EXTT1=
EXTT2=
EXTT3=
EXTT4=
EXTT5=
EXTT6=
EXTT7=
EXTT8=
EXTT9=
EXTT10=
EXTT11=
PLAYORDER=
